<svg preserveAspectRatio="none" overflow="visible" style="display: block;" width="9.47368" height="9.47368" viewBox="0 0 9.47368 9.47368" fill="none" xmlns="http://www.w3.org/2000/svg">
<g id="vuesax/linear/wallet-2">
<path id="Vector" d="M5.13158 3.55263H2.76316" stroke="#F0F0F0" stroke-width="0.888158" stroke-linecap="round" stroke-linejoin="round"/>
<path id="Vector_2" d="M8.68422 4.33025V5.14343C8.68422 5.36054 8.51054 5.53815 8.28948 5.54605H7.51579C7.08948 5.54605 6.6987 5.23421 6.66317 4.80789C6.63949 4.55921 6.73421 4.32631 6.9 4.16447C7.04606 4.01447 7.24737 3.92764 7.46843 3.92764H8.28948C8.51054 3.93553 8.68422 4.11315 8.68422 4.33025Z" stroke="#F0F0F0" stroke-width="0.592105" stroke-linecap="round" stroke-linejoin="round"/>
<path id="Vector_3" d="M6.89999 4.16447C6.7342 4.32631 6.63948 4.55921 6.66316 4.80789C6.69869 5.23421 7.08946 5.54605 7.51578 5.54605H8.28947V6.11842C8.28947 7.30263 7.5 8.0921 6.31579 8.0921H2.76316C1.57895 8.0921 0.789474 7.30263 0.789474 6.11842V3.35526C0.789474 2.28158 1.43684 1.53158 2.44342 1.40526C2.54605 1.38947 2.65263 1.38158 2.76316 1.38158H6.31579C6.41842 1.38158 6.5171 1.38552 6.61184 1.40131C7.63026 1.51973 8.28947 2.27368 8.28947 3.35526V3.92764H7.46841C7.24736 3.92764 7.04604 4.01447 6.89999 4.16447Z" stroke="white" stroke-width="0.888158" stroke-linecap="round" stroke-linejoin="round"/>
<g id="Vector_4" opacity="0">
</g>
</g>
</svg>
