<svg xmlns="http://www.w3.org/2000/svg" width="18" height="18" viewBox="0 0 18 18" fill="none">
  <path d="M10.2133 16.0252C9.88804 16.3298 9.45329 16.5 9.00084 16.5C8.54839 16.5 8.11364 16.3298 7.78837 16.0252C4.80977 13.2195 0.818072 10.0852 2.7647 5.53475C3.81723 3.07437 6.34376 1.5 9.00084 1.5C11.6579 1.5 14.1845 3.07437 15.237 5.53475C17.1811 10.0795 13.1993 13.2292 10.2133 16.0252Z" stroke="white" stroke-width="1.6875"/>
  <path d="M11.625 8.25C11.625 9.69975 10.4497 10.875 9 10.875C7.55025 10.875 6.375 9.69975 6.375 8.25C6.375 6.80025 7.55025 5.625 9 5.625C10.4497 5.625 11.625 6.80025 11.625 8.25Z" stroke="white" stroke-width="1.125"/>
</svg>